<svg version="1.0" xmlns="http://www.w3.org/2000/svg"
 width="1280.000000pt" height="1242.000000pt" viewBox="0 0 1280.000000 1242.000000"
 preserveAspectRatio="xMidYMid meet">
<metadata>
Created by potrace 1.15, written by Peter Selinger 2001-2017
</metadata>
<g transform="translate(0.000000,1242.000000) scale(0.100000,-0.100000)"
fill="#000000" stroke="none">
<path d="M9528 12410 c-60 -11 -142 -37 -189 -61 -165 -83 -1073 -934 -3349
-3138 -698 -676 -846 -820 -1075 -1040 -77 -75 -261 -255 -410 -401 -148 -146
-511 -502 -805 -790 -294 -288 -659 -646 -810 -795 -560 -550 -859 -844 -1005
-988 -145 -142 -151 -149 -172 -215 -12 -38 -110 -320 -218 -628 -108 -307
-255 -725 -327 -929 -71 -203 -174 -496 -228 -650 -54 -154 -171 -487 -260
-740 -89 -253 -206 -586 -260 -740 -54 -154 -171 -486 -259 -738 -124 -353
-161 -470 -161 -508 l0 -49 50 0 c35 0 89 15 182 49 73 27 329 122 568 211
239 89 640 237 890 330 250 93 687 255 970 360 1427 530 1569 582 2115 784
204 75 384 142 401 149 55 21 2556 2335 4224 3907 272 257 718 675 990 929
272 254 495 468 495 475 0 7 160 170 355 362 992 977 1454 1472 1536 1649 57
121 6 380 -123 625 -134 254 -333 518 -827 1095 -460 537 -910 916 -1454 1225
-361 206 -497 259 -687 265 -60 2 -131 0 -157 -5z"/>
</g>
</svg>